# WaveFront *.obj file (generated by Autodesk ATF)

mtllib Part1.mtl

g Solid1

v -10.000000 -5.000000 0.000000
v -10.000000 -5.000000 10.000000
v -10.000000 5.000000 0.000000
v -10.000000 5.000000 10.000000
v 10.000000 -5.000000 0.000000
v 10.000000 -5.000000 10.000000
v 10.000000 5.000000 0.000000
v 10.000000 5.000000 10.000000
vt 0.000000 0.000000 0.000000
vt 1.000000 0.000000 0.000000
vt 1.000000 1.000000 0.000000
vt 0.000000 1.000000 0.000000
vt 0.000000 0.000000 0.000000
vt 2.000000 0.000000 0.000000
vt 2.000000 1.000000 0.000000
vt 0.000000 1.000000 0.000000
vt 0.000000 0.000000 0.000000
vt 1.000000 0.000000 0.000000
vt 1.000000 1.000000 0.000000
vt 0.000000 1.000000 0.000000
vt 0.000000 0.000000 0.000000
vt 2.000000 0.000000 0.000000
vt 2.000000 1.000000 0.000000
vt 0.000000 1.000000 0.000000
vt 1.000000 0.500000 0.000000
vt -1.000000 0.500000 0.000000
vt -1.000000 -0.500000 0.000000
vt 1.000000 -0.500000 0.000000
vt 1.000000 0.500000 0.000000
vt -1.000000 0.500000 0.000000
vt -1.000000 -0.500000 0.000000
vt 1.000000 -0.500000 0.000000
vn 0.100000 0.000000 0.000000
vn 0.100000 0.000000 0.000000
vn 0.100000 0.000000 0.000000
vn 0.100000 0.000000 0.000000
vn 0.000000 -0.100000 0.000000
vn 0.000000 -0.100000 0.000000
vn 0.000000 -0.100000 0.000000
vn 0.000000 -0.100000 0.000000
vn -0.100000 0.000000 0.000000
vn -0.100000 0.000000 0.000000
vn -0.100000 0.000000 0.000000
vn -0.100000 0.000000 0.000000
vn 0.000000 0.100000 0.000000
vn 0.000000 0.100000 0.000000
vn 0.000000 0.100000 0.000000
vn 0.000000 0.100000 0.000000
vn 0.000000 0.000000 -0.100000
vn 0.000000 0.000000 -0.100000
vn 0.000000 0.000000 -0.100000
vn 0.000000 0.000000 -0.100000
vn 0.000000 0.000000 0.100000
vn 0.000000 0.000000 0.100000
vn 0.000000 0.000000 0.100000
vn 0.000000 0.000000 0.100000
usemtl 191,191,191
f 5/1/1 7/2/2 6/4/4
f 6/4/4 7/2/2 8/3/3
f 1/5/5 5/6/6 2/8/8
f 2/8/8 5/6/6 6/7/7
f 3/9/9 1/10/10 4/12/12
f 4/12/12 1/10/10 2/11/11
f 7/13/13 3/14/14 8/16/16
f 8/16/16 3/14/14 4/15/15
f 3/17/17 7/18/18 1/20/20
f 1/20/20 7/18/18 5/19/19
f 8/21/21 4/22/22 6/24/24
f 6/24/24 4/22/22 2/23/23

# 8 vertices
# 24 texture params
# 24 normals
# 12 facets

# 1 groups
